<svg xmlns="http://www.w3.org/2000/svg" xmlns:xlink="http://www.w3.org/1999/xlink" width="500" zoomAndPan="magnify" viewBox="0 0 375 149.999998" height="200" preserveAspectRatio="xMidYMid meet" version="1.0"><defs><g/></defs><path stroke-linecap="butt" transform="matrix(15.512326, 0, 0, 15.851306, 10.278808, 116.469823)" fill="none" stroke-linejoin="miter" d="M -0.0000944214 -0.0000677046 L 12.390757 -0.0000677046 " stroke="#000000" stroke-width="1" stroke-opacity="1" stroke-miterlimit="4"/><g fill="#000000" fill-opacity="1"><g transform="translate(10.278808, 86.94638)"><g><path d="M 32.5625 -16.109375 L 23.203125 -16.109375 L 23.203125 0 L 6.0625 0 L 6.0625 -60.609375 L 33.765625 -60.609375 C 39.253906 -60.609375 44.019531 -59.695312 48.0625 -57.875 C 52.101562 -56.0625 55.21875 -53.46875 57.40625 -50.09375 C 59.601562 -46.71875 60.703125 -42.75 60.703125 -38.1875 C 60.703125 -33.800781 59.675781 -29.976562 57.625 -26.71875 C 55.570312 -23.457031 52.644531 -20.898438 48.84375 -19.046875 L 61.921875 0 L 43.5625 0 Z M 43.390625 -38.1875 C 43.390625 -41.019531 42.492188 -43.210938 40.703125 -44.765625 C 38.910156 -46.328125 36.253906 -47.109375 32.734375 -47.109375 L 23.203125 -47.109375 L 23.203125 -29.359375 L 32.734375 -29.359375 C 36.253906 -29.359375 38.910156 -30.117188 40.703125 -31.640625 C 42.492188 -33.171875 43.390625 -35.351562 43.390625 -38.1875 Z M 43.390625 -38.1875 "/></g></g></g><g fill="#000000" fill-opacity="1"><g transform="translate(81.885561, 86.94638)"><g><path d="M 54.734375 -13.25 L 54.734375 0 L 6.0625 0 L 6.0625 -60.609375 L 53.609375 -60.609375 L 53.609375 -47.359375 L 23.03125 -47.359375 L 23.03125 -37.15625 L 49.96875 -37.15625 L 49.96875 -24.328125 L 23.03125 -24.328125 L 23.03125 -13.25 Z M 54.734375 -13.25 "/></g></g></g><g fill="#000000" fill-opacity="1"><g transform="translate(147.604552, 86.94638)"><g><path d="M 63.734375 -60.609375 L 63.734375 0 L 49.625 0 L 22.859375 -32.296875 L 22.859375 0 L 6.0625 0 L 6.0625 -60.609375 L 20.171875 -60.609375 L 46.9375 -28.3125 L 46.9375 -60.609375 Z M 63.734375 -60.609375 "/></g></g></g><g fill="#000000" fill-opacity="1"><g transform="translate(224.925903, 86.94638)"><g><path d="M 18.96875 -47.015625 L 0.34375 -47.015625 L 0.34375 -60.609375 L 54.640625 -60.609375 L 54.640625 -47.015625 L 36.109375 -47.015625 L 36.109375 0 L 18.96875 0 Z M 18.96875 -47.015625 "/></g></g></g><g fill="#000000" fill-opacity="1"><g transform="translate(211.992413, 122.31565)"><g><path d="M 7.15625 -4.640625 L 7.15625 0 L 5.25 0 L 5.25 -4.671875 L -0.078125 -13.421875 L 1.96875 -13.421875 L 6.265625 -6.34375 L 10.578125 -13.421875 L 12.484375 -13.421875 Z M 7.15625 -4.640625 "/></g></g></g><g fill="#000000" fill-opacity="1"><g transform="translate(229.141593, 122.31565)"><g><path d="M 8.078125 0.15625 C 6.722656 0.15625 5.5 -0.140625 4.40625 -0.734375 C 3.320312 -1.328125 2.46875 -2.148438 1.84375 -3.203125 C 1.226562 -4.253906 0.921875 -5.421875 0.921875 -6.703125 C 0.921875 -7.992188 1.226562 -9.164062 1.84375 -10.21875 C 2.46875 -11.269531 3.320312 -12.09375 4.40625 -12.6875 C 5.5 -13.28125 6.722656 -13.578125 8.078125 -13.578125 C 9.410156 -13.578125 10.617188 -13.28125 11.703125 -12.6875 C 12.796875 -12.09375 13.648438 -11.273438 14.265625 -10.234375 C 14.878906 -9.191406 15.1875 -8.015625 15.1875 -6.703125 C 15.1875 -5.398438 14.878906 -4.226562 14.265625 -3.1875 C 13.648438 -2.144531 12.796875 -1.328125 11.703125 -0.734375 C 10.617188 -0.140625 9.410156 0.15625 8.078125 0.15625 Z M 8.078125 -1.546875 C 9.054688 -1.546875 9.9375 -1.769531 10.71875 -2.21875 C 11.507812 -2.664062 12.128906 -3.28125 12.578125 -4.0625 C 13.035156 -4.851562 13.265625 -5.734375 13.265625 -6.703125 C 13.265625 -7.679688 13.035156 -8.5625 12.578125 -9.34375 C 12.128906 -10.132812 11.507812 -10.753906 10.71875 -11.203125 C 9.9375 -11.648438 9.054688 -11.875 8.078125 -11.875 C 7.085938 -11.875 6.191406 -11.648438 5.390625 -11.203125 C 4.597656 -10.753906 3.972656 -10.132812 3.515625 -9.34375 C 3.066406 -8.5625 2.84375 -7.679688 2.84375 -6.703125 C 2.84375 -5.734375 3.066406 -4.851562 3.515625 -4.0625 C 3.972656 -3.28125 4.597656 -2.664062 5.390625 -2.21875 C 6.191406 -1.769531 7.085938 -1.546875 8.078125 -1.546875 Z M 8.078125 -1.546875 "/></g></g></g><g fill="#000000" fill-opacity="1"><g transform="translate(249.988191, 122.31565)"><g><path d="M 7.578125 0.15625 C 5.785156 0.15625 4.390625 -0.351562 3.390625 -1.375 C 2.390625 -2.40625 1.890625 -3.878906 1.890625 -5.796875 L 1.890625 -13.421875 L 3.8125 -13.421875 L 3.8125 -5.859375 C 3.8125 -2.984375 5.070312 -1.546875 7.59375 -1.546875 C 8.820312 -1.546875 9.757812 -1.898438 10.40625 -2.609375 C 11.0625 -3.328125 11.390625 -4.410156 11.390625 -5.859375 L 11.390625 -13.421875 L 13.25 -13.421875 L 13.25 -5.796875 C 13.25 -3.859375 12.75 -2.378906 11.75 -1.359375 C 10.75 -0.347656 9.359375 0.15625 7.578125 0.15625 Z M 7.578125 0.15625 "/></g></g></g><g fill="#000000" fill-opacity="1"><g transform="translate(269.896068, 122.31565)"><g><path d="M 10.984375 0 L 8.09375 -4.125 C 7.726562 -4.09375 7.445312 -4.078125 7.25 -4.078125 L 3.9375 -4.078125 L 3.9375 0 L 2.015625 0 L 2.015625 -13.421875 L 7.25 -13.421875 C 8.988281 -13.421875 10.351562 -13.003906 11.34375 -12.171875 C 12.34375 -11.335938 12.84375 -10.195312 12.84375 -8.75 C 12.84375 -7.707031 12.585938 -6.820312 12.078125 -6.09375 C 11.566406 -5.363281 10.835938 -4.832031 9.890625 -4.5 L 13.078125 0 Z M 7.1875 -5.71875 C 8.40625 -5.71875 9.332031 -5.976562 9.96875 -6.5 C 10.601562 -7.019531 10.921875 -7.769531 10.921875 -8.75 C 10.921875 -9.71875 10.601562 -10.457031 9.96875 -10.96875 C 9.332031 -11.488281 8.40625 -11.75 7.1875 -11.75 L 3.9375 -11.75 L 3.9375 -5.71875 Z M 7.1875 -5.71875 "/></g></g></g><g fill="#000000" fill-opacity="1"><g transform="translate(288.577854, 122.31565)"><g/></g></g><g fill="#000000" fill-opacity="1"><g transform="translate(298.485436, 122.31565)"><g><path d="M 14.453125 0 L 14.4375 -9.78125 L 9.59375 -1.625 L 8.703125 -1.625 L 3.859375 -9.71875 L 3.859375 0 L 2.015625 0 L 2.015625 -13.421875 L 3.578125 -13.421875 L 9.1875 -3.984375 L 14.703125 -13.421875 L 16.28125 -13.421875 L 16.296875 0 Z M 14.453125 0 "/></g></g></g><g fill="#000000" fill-opacity="1"><g transform="translate(321.535165, 122.31565)"><g><path d="M 11.75 -1.671875 L 11.75 0 L 2.015625 0 L 2.015625 -13.421875 L 11.484375 -13.421875 L 11.484375 -11.75 L 3.9375 -11.75 L 3.9375 -7.625 L 10.65625 -7.625 L 10.65625 -6 L 3.9375 -6 L 3.9375 -1.671875 Z M 11.75 -1.671875 "/></g></g></g><g fill="#000000" fill-opacity="1"><g transform="translate(339.124972, 122.31565)"><g><path d="M 5.921875 0.15625 C 4.910156 0.15625 3.9375 0 3 -0.3125 C 2.0625 -0.625 1.320312 -1.03125 0.78125 -1.53125 L 1.5 -3.03125 C 2.007812 -2.570312 2.660156 -2.195312 3.453125 -1.90625 C 4.253906 -1.613281 5.078125 -1.46875 5.921875 -1.46875 C 7.035156 -1.46875 7.863281 -1.65625 8.40625 -2.03125 C 8.957031 -2.414062 9.234375 -2.921875 9.234375 -3.546875 C 9.234375 -4.003906 9.082031 -4.375 8.78125 -4.65625 C 8.488281 -4.945312 8.117188 -5.171875 7.671875 -5.328125 C 7.234375 -5.484375 6.613281 -5.65625 5.8125 -5.84375 C 4.800781 -6.09375 3.984375 -6.335938 3.359375 -6.578125 C 2.742188 -6.816406 2.210938 -7.1875 1.765625 -7.6875 C 1.328125 -8.195312 1.109375 -8.878906 1.109375 -9.734375 C 1.109375 -10.453125 1.296875 -11.097656 1.671875 -11.671875 C 2.054688 -12.242188 2.628906 -12.703125 3.390625 -13.046875 C 4.160156 -13.398438 5.113281 -13.578125 6.25 -13.578125 C 7.039062 -13.578125 7.816406 -13.472656 8.578125 -13.265625 C 9.347656 -13.054688 10.007812 -12.765625 10.5625 -12.390625 L 9.9375 -10.84375 C 9.375 -11.207031 8.769531 -11.476562 8.125 -11.65625 C 7.488281 -11.84375 6.863281 -11.9375 6.25 -11.9375 C 5.164062 -11.9375 4.347656 -11.738281 3.796875 -11.34375 C 3.253906 -10.945312 2.984375 -10.4375 2.984375 -9.8125 C 2.984375 -9.351562 3.132812 -8.976562 3.4375 -8.6875 C 3.75 -8.40625 4.128906 -8.179688 4.578125 -8.015625 C 5.035156 -7.859375 5.65625 -7.691406 6.4375 -7.515625 C 7.445312 -7.273438 8.257812 -7.03125 8.875 -6.78125 C 9.488281 -6.539062 10.015625 -6.171875 10.453125 -5.671875 C 10.898438 -5.171875 11.125 -4.5 11.125 -3.65625 C 11.125 -2.957031 10.929688 -2.316406 10.546875 -1.734375 C 10.160156 -1.148438 9.578125 -0.6875 8.796875 -0.34375 C 8.015625 -0.0078125 7.054688 0.15625 5.921875 0.15625 Z M 5.921875 0.15625 "/></g></g></g><g fill="#000000" fill-opacity="1"><g transform="translate(355.776056, 122.31565)"><g><path d="M 5.921875 0.15625 C 4.910156 0.15625 3.9375 0 3 -0.3125 C 2.0625 -0.625 1.320312 -1.03125 0.78125 -1.53125 L 1.5 -3.03125 C 2.007812 -2.570312 2.660156 -2.195312 3.453125 -1.90625 C 4.253906 -1.613281 5.078125 -1.46875 5.921875 -1.46875 C 7.035156 -1.46875 7.863281 -1.65625 8.40625 -2.03125 C 8.957031 -2.414062 9.234375 -2.921875 9.234375 -3.546875 C 9.234375 -4.003906 9.082031 -4.375 8.78125 -4.65625 C 8.488281 -4.945312 8.117188 -5.171875 7.671875 -5.328125 C 7.234375 -5.484375 6.613281 -5.65625 5.8125 -5.84375 C 4.800781 -6.09375 3.984375 -6.335938 3.359375 -6.578125 C 2.742188 -6.816406 2.210938 -7.1875 1.765625 -7.6875 C 1.328125 -8.195312 1.109375 -8.878906 1.109375 -9.734375 C 1.109375 -10.453125 1.296875 -11.097656 1.671875 -11.671875 C 2.054688 -12.242188 2.628906 -12.703125 3.390625 -13.046875 C 4.160156 -13.398438 5.113281 -13.578125 6.25 -13.578125 C 7.039062 -13.578125 7.816406 -13.472656 8.578125 -13.265625 C 9.347656 -13.054688 10.007812 -12.765625 10.5625 -12.390625 L 9.9375 -10.84375 C 9.375 -11.207031 8.769531 -11.476562 8.125 -11.65625 C 7.488281 -11.84375 6.863281 -11.9375 6.25 -11.9375 C 5.164062 -11.9375 4.347656 -11.738281 3.796875 -11.34375 C 3.253906 -10.945312 2.984375 -10.4375 2.984375 -9.8125 C 2.984375 -9.351562 3.132812 -8.976562 3.4375 -8.6875 C 3.75 -8.40625 4.128906 -8.179688 4.578125 -8.015625 C 5.035156 -7.859375 5.65625 -7.691406 6.4375 -7.515625 C 7.445312 -7.273438 8.257812 -7.03125 8.875 -6.78125 C 9.488281 -6.539062 10.015625 -6.171875 10.453125 -5.671875 C 10.898438 -5.171875 11.125 -4.5 11.125 -3.65625 C 11.125 -2.957031 10.929688 -2.316406 10.546875 -1.734375 C 10.160156 -1.148438 9.578125 -0.6875 8.796875 -0.34375 C 8.015625 -0.0078125 7.054688 0.15625 5.921875 0.15625 Z M 5.921875 0.15625 "/></g></g></g></svg>